PathFileType	4	(X/Y/Z)	C:/Users/opensim2020/Desktop/walking_exp_matlab/subject03_walking04_straight_02.trc	
DataRate	CameraRate	NumFrames	NumMarkers	Units	OrigDataRate	OrigDataStartFrame	OrigNumFrames	
100.00	100.00	4	51	mm	100.00	1604	259	
Frame#	Time	LFHD			RFHD			LBHD			RBHD			C7			T10			CLAV			STRN			RBAK			LSHO			LUPA			LELB			LFRM			LWRA			LWRB			LFIN			RSHO			RUPA			RELB			RFRM			RWRA			RWRB			RFIN			LASI			RASI			LPSI			RPSI			LTHI			LKNE			LTIB			LANK			LHEE			LTOE			RTHI			RKNE			RTIB			RANK			RHEE			RTOE			*39			*40			*41			*42			*43			*44			*45			*46			*47			*48			*49			*50			
		X1	Y1	Z1	X2	Y2	Z2	X3	Y3	Z3	X4	Y4	Z4	X5	Y5	Z5	X6	Y6	Z6	X7	Y7	Z7	X8	Y8	Z8	X9	Y9	Z9	X10	Y10	Z10	X11	Y11	Z11	X12	Y12	Z12	X13	Y13	Z13	X14	Y14	Z14	X15	Y15	Z15	X16	Y16	Z16	X17	Y17	Z17	X18	Y18	Z18	X19	Y19	Z19	X20	Y20	Z20	X21	Y21	Z21	X22	Y22	Z22	X23	Y23	Z23	X24	Y24	Z24	X25	Y25	Z25	X26	Y26	Z26	X27	Y27	Z27	X28	Y28	Z28	X29	Y29	Z29	X30	Y30	Z30	X31	Y31	Z31	X32	Y32	Z32	X33	Y33	Z33	X34	Y34	Z34	X35	Y35	Z35	X36	Y36	Z36	X37	Y37	Z37	X38	Y38	Z38	X39	Y39	Z39	X40	Y40	Z40	X41	Y41	Z41	X42	Y42	Z42	X43	Y43	Z43	X44	Y44	Z44	X45	Y45	Z45	X46	Y46	Z46	X47	Y47	Z47	X48	Y48	Z48	X49	Y49	Z49	X50	Y50	Z50	X51	Y51	Z51	

65	0.640	1636.66125	848.90131	1611.63672	1504.52441	862.89246	1618.97302	1643.53406	973.18164	1556.88452	1512.85229	981.81378	1564.39172	1573.60559	1001.06787	1409.89514	1572.77185	1053.71912	1100.35779	1573.15601	880.43732	1328.63574	1575.12354	845.89166	1161.27722	1468.96387	1058.97559	1242.03394	1729.79053	929.83777	1364.51196	1800.50891	981.59167	1172.65930	1816.90820	999.70685	1050.94006	1820.49695	993.29779	921.06726	1793.50952	987.58118	801.73395	1840.90942	1016.23175	810.28455	1834.60986	1009.80023	726.37085	1414.91003	919.79462	1358.20569	1334.35632	879.31592	1145.08252	1323.05774	832.91449	1043.11011	1334.34412	764.36200	925.93933	1383.42908	705.27704	854.08466	1336.76709	724.14075	834.16876	1355.56604	674.11725	782.55475	1683.49109	881.49731	928.27466	1445.38501	896.90222	928.97247	1646.60144	1047.21948	949.62360	1496.71790	1053.57617	963.25616	1737.58838	882.44739	627.39777	1691.17468	814.54968	465.85999	1699.00195	792.44421	279.41794	1672.98975	721.64221	78.25385	1631.02844	743.46057	32.01422	1662.42920	568.17615	85.37431	1415.98755	999.89850	642.51367	1454.45264	1027.18298	465.05057	1458.78589	1123.40576	296.38266	1515.05249	1208.55225	97.25526	1566.19653	1258.00513	77.75919	1536.49084	1075.95654	35.33199	1596.14636	941.12463	1667.02087																																	 
66	0.650	1638.06934	838.88074	1610.79248	1505.92786	852.73114	1618.44507	1644.62427	963.13000	1555.90100	1513.98230	971.60577	1563.68591	1574.86707	990.54706	1409.01233	1574.21826	1043.09619	1099.55884	1574.11792	869.86072	1327.84753	1575.99231	835.36908	1160.41077	1470.66626	1048.88928	1241.13721	1730.91077	918.90222	1363.58191	1801.16504	970.35449	1171.49280	1817.22388	988.54480	1049.75049	1820.66809	982.67273	919.75085	1793.79480	977.72504	800.42883	1840.99646	1006.14478	809.08209	1834.50635	1000.25330	725.09595	1415.87476	909.87268	1357.24512	1335.51770	870.30566	1143.87463	1324.19922	824.05414	1041.82117	1335.72034	755.17297	924.88110	1384.85706	695.76123	853.45380	1338.41907	714.82410	833.19702	1357.20825	664.24414	782.03107	1684.31360	870.62878	927.33521	1446.20288	886.86438	928.24921	1648.21692	1036.40393	948.96460	1498.37964	1043.37671	962.49475	1737.31934	871.98346	626.62793	1691.04248	804.03607	465.18478	1698.88831	782.79303	278.39017	1672.16394	713.24951	76.90746	1630.27881	735.59070	30.69447	1660.30920	559.74585	83.17444	1416.35156	991.35193	642.30377	1454.24438	1019.55609	464.80130	1458.42041	1118.34558	297.38028	1514.44543	1206.96863	99.62274	1565.33655	1256.96667	81.31538	1536.33020	1075.67786	35.23021	1591.33105	931.07172	1663.05786																																	 
67	0.660	1639.38892	828.81635	1610.16724	1507.28442	842.63605	1618.13843	1645.68848	952.98297	1555.01038	1514.99316	961.16876	1563.02844	1576.23694	979.96771	1408.28442	1575.63330	1032.20996	1098.78833	1575.07751	859.19830	1327.17444	1576.81714	824.76447	1159.75354	1472.39490	1038.50952	1240.30750	1732.07776	907.78265	1362.77954	1801.80103	958.81055	1170.35107	1817.34253	976.78583	1048.39722	1820.80286	971.69525	918.56744	1793.76794	967.35107	799.17194	1841.04834	995.67200	807.93988	1834.31921	990.31659	723.90094	1416.96643	899.86169	1356.49451	1336.76208	861.41553	1142.80383	1325.46814	815.34955	1040.65247	1337.05920	746.38031	923.80542	1386.22192	686.62677	852.72876	1340.04517	705.94092	832.16968	1358.72803	654.90417	781.15698	1685.25427	859.68524	926.60413	1446.97864	876.61487	927.60028	1649.63538	1025.40271	948.43097	1499.94897	1032.94849	961.90277	1737.32361	860.85229	626.33636	1691.28284	792.85577	464.81100	1698.84363	773.94458	277.17648	1671.26001	707.60797	74.80201	1629.46008	730.88214	29.05927	1657.53687	554.21698	79.12606	1416.70032	982.49219	642.11218	1454.06775	1011.43616	464.51477	1458.02527	1113.04053	298.53131	1513.56812	1205.19409	102.15371	1564.45398	1255.54663	84.87487	1536.15637	1075.39722	35.16096	1598.94214	921.14301	1665.53088																																	 
68	0.670	1640.85706	818.71753	1609.74634	1508.64307	832.32837	1617.88074	1646.86255	942.78528	1554.36853	1516.12524	950.88483	1562.57214	1577.69995	969.34302	1407.66699	1577.03186	1021.12439	1098.18530	1576.17432	848.45697	1326.67993	1577.78394	813.83466	1159.26904	1474.27783	1028.18591	1239.71985	1733.38794	896.57520	1362.22632	1802.46765	947.00720	1169.38599	1817.74207	964.93158	1047.49463	1820.84485	960.27014	917.44788	1793.71033	956.57367	798.05652	1841.08679	984.75446	806.93427	1834.08838	980.02728	722.82990	1418.08655	889.79724	1355.86743	1338.07324	852.48334	1141.91870	1326.79871	806.81183	1039.51453	1338.46912	737.92731	922.64844	1387.52710	677.89386	851.82867	1341.59656	697.52203	831.01483	1360.23706	646.39404	780.31274	1686.32922	848.21234	926.07037	1447.89917	866.07770	926.94720	1650.94507	1014.22205	948.09235	1501.43030	1022.52026	961.50140	1737.43396	849.01855	626.53412	1691.59265	781.64252	464.59964	1698.74646	766.09747	275.77637	1670.12170	704.24268	72.40578	1629.17090	729.05298	28.10141	1653.86475	550.59766	73.74125	1417.17468	973.22595	641.83636	1453.86536	1002.87103	464.29218	1457.63403	1107.23950	299.66180	1512.79663	1203.21399	105.02266	1563.62830	1254.05591	89.10908	1535.89868	1074.98206	35.06780	1600.51062	911.22565	1665.26807																																	 
